<mxfile host="Electron" modified="2024-03-03T06:34:01.352Z" agent="Mozilla/5.0 (Windows NT 10.0; Win64; x64) AppleWebKit/537.36 (KHTML, like Gecko) draw.io/22.1.2 Chrome/114.0.5735.289 Electron/25.9.4 Safari/537.36" etag="a0XmdRP-xwBx_zy8B7li" version="22.1.2" type="device">
  <diagram name="Page-1" id="HIUhq1X327jHK2xfVJ5v">
    <mxGraphModel dx="3763" dy="1194" grid="1" gridSize="10" guides="1" tooltips="1" connect="1" arrows="1" fold="1" page="0" pageScale="1" pageWidth="827" pageHeight="1169" math="0" shadow="0">
      <root>
        <mxCell id="0" />
        <mxCell id="1" parent="0" />
        <mxCell id="Wq8Kh5scFoRL-JU25aqo-2" value="Vertical Container" style="swimlane;whiteSpace=wrap;html=1;" vertex="1" parent="1">
          <mxGeometry x="107" y="210" width="720" height="1000" as="geometry" />
        </mxCell>
        <mxCell id="Wq8Kh5scFoRL-JU25aqo-7" value="&lt;font style=&quot;font-size: 18px;&quot;&gt;child: &lt;b&gt;Text&lt;/b&gt;(.&lt;br&gt;&lt;font color=&quot;#0000ff&quot;&gt;&lt;b&gt;                    my_story.getStory()&lt;/b&gt;&lt;/font&gt;,&lt;br&gt;                    style: const TextStyle(&lt;br&gt;                      fontSize: 25.0,&lt;br&gt;                    ),&lt;/font&gt;" style="text;whiteSpace=wrap;html=1;fillColor=#ffe6cc;strokeColor=#d79b00;" vertex="1" parent="Wq8Kh5scFoRL-JU25aqo-2">
          <mxGeometry x="50" y="30" width="530" height="230" as="geometry" />
        </mxCell>
        <mxCell id="Wq8Kh5scFoRL-JU25aqo-15" value="&lt;div&gt;&lt;font style=&quot;&quot;&gt;&lt;span style=&quot;font-size: 14px;&quot;&gt;child: &lt;/span&gt;&lt;b style=&quot;&quot;&gt;&lt;font style=&quot;font-size: 24px;&quot; color=&quot;#009900&quot;&gt;TextButton&lt;/font&gt;&lt;/b&gt;&lt;span style=&quot;font-size: 14px;&quot;&gt;(&lt;/span&gt;&lt;/font&gt;&lt;/div&gt;&lt;div&gt;&lt;font style=&quot;&quot;&gt;&lt;span style=&quot;font-size: 14px;&quot;&gt;&amp;nbsp; &amp;nbsp; &amp;nbsp; &amp;nbsp; &amp;nbsp; &amp;nbsp; &amp;nbsp; &amp;nbsp; &amp;nbsp; &lt;/span&gt;&lt;font style=&quot;font-size: 24px;&quot; color=&quot;#ff66b3&quot;&gt;onPressed: () {&lt;/font&gt;&lt;/font&gt;&lt;/div&gt;&lt;div&gt;&lt;font color=&quot;#ff66b3&quot; size=&quot;3&quot;&gt;&amp;nbsp; &amp;nbsp; &amp;nbsp; &amp;nbsp; &amp;nbsp; &amp;nbsp; &amp;nbsp; &amp;nbsp; &amp;nbsp; &amp;nbsp; setState(() {&lt;/font&gt;&lt;/div&gt;&lt;div&gt;&lt;font color=&quot;#ff66b3&quot; size=&quot;3&quot;&gt;&amp;nbsp; &amp;nbsp; &amp;nbsp; &amp;nbsp; &amp;nbsp; &amp;nbsp; &amp;nbsp; &amp;nbsp; &amp;nbsp; &amp;nbsp; &amp;nbsp; &lt;/font&gt;&lt;font size=&quot;3&quot;&gt;&lt;font style=&quot;&quot; color=&quot;#00331a&quot;&gt;my_story&lt;b&gt;.&lt;/b&gt;&lt;/font&gt;&lt;b style=&quot;color: rgb(0, 0, 255);&quot;&gt;nextStory&lt;/b&gt;&lt;font color=&quot;#0000ff&quot;&gt;(2)&lt;/font&gt;&lt;/font&gt;&lt;font color=&quot;#ff66b3&quot; size=&quot;3&quot;&gt;; &lt;/font&gt;&lt;font color=&quot;#009900&quot; size=&quot;3&quot;&gt;choiceNumber=2 made by user&lt;/font&gt;&lt;/div&gt;&lt;div&gt;&lt;font color=&quot;#ff66b3&quot; size=&quot;3&quot;&gt;&amp;nbsp; &amp;nbsp; &amp;nbsp; &amp;nbsp; &amp;nbsp; &amp;nbsp; &amp;nbsp; &amp;nbsp; &amp;nbsp; &amp;nbsp; });&lt;/font&gt;&lt;/div&gt;&lt;div&gt;&lt;font color=&quot;#ff66b3&quot; size=&quot;3&quot;&gt;&amp;nbsp; &amp;nbsp; &amp;nbsp; &amp;nbsp; &amp;nbsp; &amp;nbsp; &amp;nbsp; &amp;nbsp; &amp;nbsp; },&lt;/font&gt;&lt;/div&gt;&lt;div&gt;&lt;font size=&quot;3&quot;&gt;-----------------------------------------------------------------------------------------------&lt;/font&gt;&lt;/div&gt;&lt;div&gt;&lt;font size=&quot;3&quot;&gt;&lt;div&gt;&amp;nbsp;child: Text(&amp;nbsp; &amp;nbsp; &amp;nbsp; &amp;nbsp; &amp;nbsp; &amp;nbsp;&lt;/div&gt;&lt;div&gt;&amp;nbsp; &amp;nbsp; &amp;nbsp; &amp;nbsp; &amp;nbsp; &amp;nbsp; &amp;nbsp; &amp;nbsp; &amp;nbsp; &amp;nbsp;&lt;b&gt; &lt;font color=&quot;#0000ff&quot;&gt;my_story.getChoice2()&lt;/font&gt;&lt;/b&gt;,&amp;nbsp; storyBrain to get the text for choice 1.&lt;/div&gt;&lt;div&gt;&amp;nbsp; &amp;nbsp; &amp;nbsp; &amp;nbsp; &amp;nbsp; &amp;nbsp; &amp;nbsp; &amp;nbsp; &amp;nbsp; &amp;nbsp; style: TextStyle(&lt;/div&gt;&lt;div&gt;&amp;nbsp; &amp;nbsp; &amp;nbsp; &amp;nbsp; &amp;nbsp; &amp;nbsp; &amp;nbsp; &amp;nbsp; &amp;nbsp; &amp;nbsp; &amp;nbsp; fontSize: 20.0,&lt;/div&gt;&lt;div&gt;&amp;nbsp; &amp;nbsp; &amp;nbsp; &amp;nbsp; &amp;nbsp; &amp;nbsp; &amp;nbsp; &amp;nbsp; &amp;nbsp; &amp;nbsp; ),&lt;/div&gt;&lt;div&gt;&amp;nbsp; &amp;nbsp; &amp;nbsp; &amp;nbsp; &amp;nbsp; &amp;nbsp; &amp;nbsp; &amp;nbsp; &amp;nbsp; ),&lt;/div&gt;&lt;/font&gt;&lt;/div&gt;" style="text;strokeColor=#6c8ebf;align=left;fillColor=#dae8fc;html=1;verticalAlign=middle;whiteSpace=wrap;rounded=0;" vertex="1" parent="Wq8Kh5scFoRL-JU25aqo-2">
          <mxGeometry x="50" y="580" width="571" height="300" as="geometry" />
        </mxCell>
        <mxCell id="Wq8Kh5scFoRL-JU25aqo-11" value="&lt;div&gt;&lt;font style=&quot;font-size: 14px;&quot;&gt;child:&lt;/font&gt;&lt;font color=&quot;#009900&quot; style=&quot;font-size: 24px;&quot;&gt; &lt;b style=&quot;&quot;&gt;TextButton&lt;/b&gt;(&lt;/font&gt;&lt;/div&gt;&lt;div&gt;&lt;font style=&quot;&quot;&gt;&lt;span style=&quot;font-size: 14px;&quot;&gt;&amp;nbsp; &amp;nbsp; &amp;nbsp; &amp;nbsp; &amp;nbsp; &amp;nbsp; &amp;nbsp; &amp;nbsp; &amp;nbsp; &lt;/span&gt;&lt;font style=&quot;font-size: 24px;&quot; color=&quot;#ff66b3&quot;&gt;onPressed: () {&lt;/font&gt;&lt;/font&gt;&lt;/div&gt;&lt;div&gt;&lt;font style=&quot;font-size: 18px;&quot; color=&quot;#ff66b3&quot;&gt;&amp;nbsp; &amp;nbsp; &amp;nbsp; &amp;nbsp; &amp;nbsp; &amp;nbsp; &amp;nbsp; &amp;nbsp; &amp;nbsp; &amp;nbsp;&lt;/font&gt;&lt;font color=&quot;#009900&quot; style=&quot;font-size: 18px;&quot;&gt;&amp;nbsp;&lt;/font&gt;&lt;span style=&quot;color: rgb(255, 102, 179); font-size: medium; background-color: initial;&quot;&gt;&amp;nbsp; setState(() {&lt;/span&gt;&lt;/div&gt;&lt;div&gt;&lt;font style=&quot;font-size: 24px;&quot; color=&quot;#ff66b3&quot;&gt;&amp;nbsp; &amp;nbsp; &amp;nbsp; &amp;nbsp; &amp;nbsp; &amp;nbsp; &amp;nbsp; &amp;nbsp; &lt;/font&gt;&lt;font size=&quot;3&quot;&gt;&lt;font color=&quot;#00331a&quot;&gt;my_story.&lt;/font&gt;&lt;b style=&quot;color: rgb(0, 0, 255);&quot;&gt;nextStory&lt;/b&gt;&lt;font color=&quot;#0000ff&quot;&gt;(1)&lt;/font&gt;&lt;/font&gt;&lt;font color=&quot;#ff66b3&quot; size=&quot;3&quot;&gt;;&amp;nbsp;&amp;nbsp;&lt;/font&gt;&lt;font color=&quot;#009900&quot; size=&quot;3&quot;&gt;&lt;b&gt;c&lt;/b&gt;&lt;/font&gt;&lt;u style=&quot;font-size: 18px; color: rgb(0, 153, 0); background-color: initial; border-color: var(--border-color);&quot;&gt;hoiceNumber = 1 made by user&lt;/u&gt;&lt;/div&gt;&lt;div&gt;&lt;font color=&quot;#ff66b3&quot; size=&quot;3&quot;&gt;&amp;nbsp; &amp;nbsp; &amp;nbsp; &amp;nbsp; &amp;nbsp; &amp;nbsp; &amp;nbsp; &amp;nbsp; &amp;nbsp; &amp;nbsp; });&lt;/font&gt;&lt;/div&gt;&lt;div&gt;&lt;font color=&quot;#ff66b3&quot; size=&quot;3&quot;&gt;&amp;nbsp; &amp;nbsp; &amp;nbsp; &amp;nbsp; &amp;nbsp; &amp;nbsp; &amp;nbsp; &amp;nbsp; &amp;nbsp; },&lt;/font&gt;&lt;/div&gt;&lt;div&gt;&lt;font size=&quot;3&quot;&gt;-----------------------------------------------------------------------------------------------&lt;/font&gt;&lt;/div&gt;&lt;div&gt;&lt;font size=&quot;3&quot;&gt;&lt;div&gt;&amp;nbsp;child: Text(&amp;nbsp; &amp;nbsp; &amp;nbsp; &amp;nbsp; &amp;nbsp; &amp;nbsp;&lt;/div&gt;&lt;div&gt;&amp;nbsp; &amp;nbsp; &amp;nbsp; &amp;nbsp; &amp;nbsp; &amp;nbsp; &amp;nbsp; &amp;nbsp; &amp;nbsp; &amp;nbsp;&lt;b&gt; &lt;font color=&quot;#0000ff&quot;&gt;my_story.getChoice1()&lt;/font&gt;&lt;/b&gt;,&amp;nbsp; storyBrain to get the text for choice 1.&lt;/div&gt;&lt;div&gt;&amp;nbsp; &amp;nbsp; &amp;nbsp; &amp;nbsp; &amp;nbsp; &amp;nbsp; &amp;nbsp; &amp;nbsp; &amp;nbsp; &amp;nbsp; style: TextStyle(&lt;/div&gt;&lt;div&gt;&amp;nbsp; &amp;nbsp; &amp;nbsp; &amp;nbsp; &amp;nbsp; &amp;nbsp; &amp;nbsp; &amp;nbsp; &amp;nbsp; &amp;nbsp; &amp;nbsp; fontSize: 20.0,&lt;/div&gt;&lt;div&gt;&amp;nbsp; &amp;nbsp; &amp;nbsp; &amp;nbsp; &amp;nbsp; &amp;nbsp; &amp;nbsp; &amp;nbsp; &amp;nbsp; &amp;nbsp; ),&lt;/div&gt;&lt;div&gt;&amp;nbsp; &amp;nbsp; &amp;nbsp; &amp;nbsp; &amp;nbsp; &amp;nbsp; &amp;nbsp; &amp;nbsp; &amp;nbsp; ),&lt;/div&gt;&lt;/font&gt;&lt;/div&gt;" style="text;strokeColor=#b85450;align=left;fillColor=#f8cecc;html=1;verticalAlign=middle;whiteSpace=wrap;rounded=0;" vertex="1" parent="Wq8Kh5scFoRL-JU25aqo-2">
          <mxGeometry x="50" y="270" width="570" height="300" as="geometry" />
        </mxCell>
        <mxCell id="Wq8Kh5scFoRL-JU25aqo-39" value="" style="endArrow=classic;html=1;rounded=0;strokeColor=#CC0000;exitX=0.639;exitY=0.227;exitDx=0;exitDy=0;exitPerimeter=0;" edge="1" parent="Wq8Kh5scFoRL-JU25aqo-2">
          <mxGeometry relative="1" as="geometry">
            <mxPoint x="310" y="810" as="sourcePoint" />
            <mxPoint x="730" y="830" as="targetPoint" />
          </mxGeometry>
        </mxCell>
        <mxCell id="Wq8Kh5scFoRL-JU25aqo-40" value="Label" style="edgeLabel;resizable=0;html=1;align=center;verticalAlign=middle;" connectable="0" vertex="1" parent="Wq8Kh5scFoRL-JU25aqo-39">
          <mxGeometry relative="1" as="geometry" />
        </mxCell>
        <mxCell id="Wq8Kh5scFoRL-JU25aqo-41" value="my_story.nextStory(1 OR 2)" style="edgeLabel;html=1;align=center;verticalAlign=middle;resizable=0;points=[];" vertex="1" connectable="0" parent="Wq8Kh5scFoRL-JU25aqo-39">
          <mxGeometry x="-0.0187" y="-2" relative="1" as="geometry">
            <mxPoint as="offset" />
          </mxGeometry>
        </mxCell>
        <mxCell id="Wq8Kh5scFoRL-JU25aqo-43" value="" style="endArrow=classic;html=1;rounded=0;strokeColor=#CC0000;exitX=0.639;exitY=0.227;exitDx=0;exitDy=0;exitPerimeter=0;" edge="1" parent="Wq8Kh5scFoRL-JU25aqo-2">
          <mxGeometry relative="1" as="geometry">
            <mxPoint x="320" y="480" as="sourcePoint" />
            <mxPoint x="740" y="500" as="targetPoint" />
          </mxGeometry>
        </mxCell>
        <mxCell id="Wq8Kh5scFoRL-JU25aqo-44" value="Label" style="edgeLabel;resizable=0;html=1;align=center;verticalAlign=middle;" connectable="0" vertex="1" parent="Wq8Kh5scFoRL-JU25aqo-43">
          <mxGeometry relative="1" as="geometry" />
        </mxCell>
        <mxCell id="Wq8Kh5scFoRL-JU25aqo-45" value="my_story.nextStory(1 OR 2)" style="edgeLabel;html=1;align=center;verticalAlign=middle;resizable=0;points=[];" vertex="1" connectable="0" parent="Wq8Kh5scFoRL-JU25aqo-43">
          <mxGeometry x="-0.0187" y="-2" relative="1" as="geometry">
            <mxPoint as="offset" />
          </mxGeometry>
        </mxCell>
        <mxCell id="Wq8Kh5scFoRL-JU25aqo-55" value="Text" style="edgeLabel;html=1;align=center;verticalAlign=middle;resizable=0;points=[];" vertex="1" connectable="0" parent="Wq8Kh5scFoRL-JU25aqo-43">
          <mxGeometry x="-0.0071" y="-5" relative="1" as="geometry">
            <mxPoint as="offset" />
          </mxGeometry>
        </mxCell>
        <mxCell id="Wq8Kh5scFoRL-JU25aqo-47" value="" style="endArrow=classic;html=1;rounded=0;strokeColor=#CC0000;exitX=0.639;exitY=0.227;exitDx=0;exitDy=0;exitPerimeter=0;entryX=0.028;entryY=0.333;entryDx=0;entryDy=0;entryPerimeter=0;" edge="1" parent="Wq8Kh5scFoRL-JU25aqo-2" target="Wq8Kh5scFoRL-JU25aqo-46">
          <mxGeometry relative="1" as="geometry">
            <mxPoint x="247" y="70" as="sourcePoint" />
            <mxPoint x="667" y="90" as="targetPoint" />
          </mxGeometry>
        </mxCell>
        <mxCell id="Wq8Kh5scFoRL-JU25aqo-48" value="Label" style="edgeLabel;resizable=0;html=1;align=center;verticalAlign=middle;" connectable="0" vertex="1" parent="Wq8Kh5scFoRL-JU25aqo-47">
          <mxGeometry relative="1" as="geometry" />
        </mxCell>
        <mxCell id="Wq8Kh5scFoRL-JU25aqo-49" value="my_story.nextStory(1 OR 2)" style="edgeLabel;html=1;align=center;verticalAlign=middle;resizable=0;points=[];" vertex="1" connectable="0" parent="Wq8Kh5scFoRL-JU25aqo-47">
          <mxGeometry x="-0.0187" y="-2" relative="1" as="geometry">
            <mxPoint as="offset" />
          </mxGeometry>
        </mxCell>
        <mxCell id="Wq8Kh5scFoRL-JU25aqo-52" value="&lt;span style=&quot;background-color: rgb(204, 0, 204);&quot;&gt;&lt;font style=&quot;font-size: 24px;&quot; color=&quot;#ffffff&quot;&gt;AFFICHAGE&lt;/font&gt;&lt;/span&gt;" style="text;strokeColor=none;align=center;fillColor=none;html=1;verticalAlign=middle;whiteSpace=wrap;rounded=0;" vertex="1" parent="Wq8Kh5scFoRL-JU25aqo-2">
          <mxGeometry x="189" y="140" width="171" height="60" as="geometry" />
        </mxCell>
        <mxCell id="Wq8Kh5scFoRL-JU25aqo-53" value="&lt;span style=&quot;background-color: rgb(204, 0, 204);&quot;&gt;&lt;font style=&quot;font-size: 24px;&quot; color=&quot;#ffffff&quot;&gt;AFFICHAGE&lt;/font&gt;&lt;/span&gt;" style="text;strokeColor=none;align=center;fillColor=none;html=1;verticalAlign=middle;whiteSpace=wrap;rounded=0;" vertex="1" parent="Wq8Kh5scFoRL-JU25aqo-2">
          <mxGeometry x="274.5" y="500" width="171" height="60" as="geometry" />
        </mxCell>
        <mxCell id="Wq8Kh5scFoRL-JU25aqo-54" value="&lt;span style=&quot;background-color: rgb(204, 0, 204);&quot;&gt;&lt;font style=&quot;font-size: 24px;&quot; color=&quot;#ffffff&quot;&gt;AFFICHAGE&lt;/font&gt;&lt;/span&gt;" style="text;strokeColor=none;align=center;fillColor=none;html=1;verticalAlign=middle;whiteSpace=wrap;rounded=0;" vertex="1" parent="Wq8Kh5scFoRL-JU25aqo-2">
          <mxGeometry x="274.5" y="830" width="171" height="60" as="geometry" />
        </mxCell>
        <mxCell id="Wq8Kh5scFoRL-JU25aqo-16" value="&lt;div&gt;&lt;b&gt;&lt;font style=&quot;font-size: 14px;&quot; color=&quot;#cc0000&quot;&gt;&amp;nbsp; int _storyNumber = 0;&lt;/font&gt;&lt;/b&gt;&lt;/div&gt;&lt;div&gt;&lt;font size=&quot;3&quot; color=&quot;#009900&quot;&gt;method nextStory(), it should not have any outputs but it should have &lt;u&gt;1 input choiceNumber&lt;/u&gt; which will be the choice number (int) made by the user.&lt;/font&gt;&lt;/div&gt;&lt;div&gt;&lt;font size=&quot;3&quot;&gt;&amp;nbsp; void &lt;b&gt;&lt;font style=&quot;&quot; color=&quot;#0000ff&quot;&gt;nextStory&lt;/font&gt;&lt;/b&gt;(&lt;font color=&quot;#ff66b3&quot;&gt;int choiceNumber&lt;/font&gt;) {&lt;/font&gt;&lt;/div&gt;&lt;div&gt;&lt;font size=&quot;3&quot;&gt;&amp;nbsp; &amp;nbsp; if (choiceNumber == 1 &amp;amp;&amp;amp; &lt;font color=&quot;#ff0000&quot;&gt;_storyNumber &lt;/font&gt;&lt;font color=&quot;#cc0000&quot;&gt;== 0&lt;/font&gt;) {&lt;/font&gt;&lt;/div&gt;&lt;div&gt;&lt;font size=&quot;3&quot;&gt;&amp;nbsp; &amp;nbsp; &amp;nbsp; &lt;font color=&quot;#cc0000&quot;&gt;_storyNumber &lt;/font&gt;= 2;&lt;/font&gt;&lt;/div&gt;&lt;div&gt;&lt;font size=&quot;3&quot;&gt;&amp;nbsp; &amp;nbsp; } else if (choiceNumber == 2 &amp;amp;&amp;amp; &lt;font color=&quot;#ff0000&quot;&gt;_storyNumber &lt;/font&gt;== 0) {&lt;/font&gt;&lt;/div&gt;&lt;div&gt;&lt;font size=&quot;3&quot;&gt;&amp;nbsp; &amp;nbsp; &amp;nbsp; &lt;font color=&quot;#cc0000&quot;&gt;_storyNumber &lt;/font&gt;= 1;&lt;/font&gt;&lt;/div&gt;&lt;div&gt;&lt;font size=&quot;3&quot;&gt;&amp;nbsp; &amp;nbsp; } else if (choiceNumber == 1 &amp;amp;&amp;amp; &lt;font color=&quot;#ff0000&quot;&gt;_storyNumber &lt;/font&gt;== 1) {&lt;/font&gt;&lt;/div&gt;&lt;div&gt;&lt;font size=&quot;3&quot;&gt;&amp;nbsp; &amp;nbsp; &amp;nbsp; &lt;font color=&quot;#cc0000&quot;&gt;_storyNumber &lt;/font&gt;= 2;&lt;/font&gt;&lt;/div&gt;&lt;div&gt;&lt;font size=&quot;3&quot;&gt;&amp;nbsp; &amp;nbsp; } else if (choiceNumber == 2 &amp;amp;&amp;amp; &lt;font color=&quot;#ff0000&quot;&gt;_storyNumber &lt;/font&gt;== 1) {&lt;/font&gt;&lt;/div&gt;&lt;div&gt;&lt;font size=&quot;3&quot;&gt;&amp;nbsp; &amp;nbsp; &amp;nbsp; &lt;font color=&quot;#cc0000&quot;&gt;_storyNumber &lt;/font&gt;= 3;&lt;/font&gt;&lt;/div&gt;&lt;div&gt;&lt;font size=&quot;3&quot;&gt;&amp;nbsp; &amp;nbsp; } else if (choiceNumber == 1 &amp;amp;&amp;amp; &lt;font color=&quot;#ff0000&quot;&gt;_storyNumber &lt;/font&gt;== 2) {&lt;/font&gt;&lt;/div&gt;&lt;div&gt;&lt;font size=&quot;3&quot;&gt;&amp;nbsp; &amp;nbsp; &amp;nbsp; &lt;font color=&quot;#cc0000&quot;&gt;_storyNumber &lt;/font&gt;= 5;&lt;/font&gt;&lt;/div&gt;&lt;div&gt;&lt;font size=&quot;3&quot;&gt;&amp;nbsp; &amp;nbsp; } else if (choiceNumber == 2 &amp;amp;&amp;amp; &lt;font color=&quot;#ff0000&quot;&gt;_storyNumber &lt;/font&gt;== 2) {&lt;/font&gt;&lt;/div&gt;&lt;div&gt;&lt;font size=&quot;3&quot;&gt;&amp;nbsp; &amp;nbsp; &amp;nbsp; &lt;font color=&quot;#ff0000&quot;&gt;_storyNumber &lt;/font&gt;= 4;&lt;/font&gt;&lt;/div&gt;&lt;div&gt;&lt;font size=&quot;3&quot;&gt;&amp;nbsp; &amp;nbsp; }&lt;/font&gt;&lt;/div&gt;&lt;div&gt;&lt;font size=&quot;3&quot;&gt;&amp;nbsp; &lt;font color=&quot;#009900&quot;&gt;&amp;nbsp; //TODO: Step 22 - done In nextStory() if the storyNumber is equal to 3 or 4 or 5, that means it&#39;s the end of the game and it should call a method called restart() that resets the storyNumber to 0.&lt;/font&gt;&lt;/font&gt;&lt;/div&gt;&lt;div&gt;&lt;font size=&quot;3&quot;&gt;&amp;nbsp; &amp;nbsp; else if (&lt;font color=&quot;#ff0000&quot;&gt;_storyNumber &lt;/font&gt;== 3 || &lt;font color=&quot;#ff0000&quot;&gt;_storyNumber &lt;/font&gt;== 4 || &lt;font color=&quot;#ff0000&quot;&gt;_storyNumber &lt;/font&gt;== 5) {&lt;/font&gt;&lt;/div&gt;&lt;div&gt;&lt;font size=&quot;3&quot;&gt;&amp;nbsp; &amp;nbsp; &amp;nbsp; restart();&lt;/font&gt;&lt;/div&gt;&lt;div&gt;&lt;font size=&quot;3&quot;&gt;&amp;nbsp; &amp;nbsp; }&lt;/font&gt;&lt;/div&gt;&lt;div&gt;&lt;font size=&quot;3&quot;&gt;&amp;nbsp; }&lt;/font&gt;&lt;/div&gt;&lt;div&gt;&lt;br&gt;&lt;/div&gt;" style="text;strokeColor=#9673a6;align=center;fillColor=#e1d5e7;html=1;verticalAlign=middle;whiteSpace=wrap;rounded=0;" vertex="1" parent="1">
          <mxGeometry x="-660" y="490" width="740" height="440" as="geometry" />
        </mxCell>
        <mxCell id="Wq8Kh5scFoRL-JU25aqo-17" value="Using the story plan, update nextStory() to change the storyNumber depending on the choice made by the user. e.g. if choiceNumber was equal to 1 and the storyNumber is 0, the storyNumber should become 2." style="text;strokeColor=none;align=center;fillColor=none;html=1;verticalAlign=middle;whiteSpace=wrap;rounded=0;" vertex="1" parent="1">
          <mxGeometry x="-660" y="640" width="190" height="90" as="geometry" />
        </mxCell>
        <mxCell id="Wq8Kh5scFoRL-JU25aqo-28" value="&lt;div&gt;&lt;span style=&quot;color: rgb(0, 204, 0); font-size: medium; background-color: initial;&quot;&gt;Create a method called getChoice2() that returns the text for the second choice2 from _storyData.&lt;/span&gt;&lt;br&gt;&lt;/div&gt;&lt;div&gt;&lt;font size=&quot;3&quot;&gt;&amp;nbsp; &lt;font color=&quot;#0000ff&quot;&gt;&lt;b&gt;String getChoice2()&lt;/b&gt;&lt;/font&gt; {&lt;/font&gt;&lt;/div&gt;&lt;div&gt;&lt;font size=&quot;3&quot;&gt;&amp;nbsp; &amp;nbsp; return _storyData[&lt;font color=&quot;#cc0000&quot;&gt;_storyNumber&lt;/font&gt;].&lt;font color=&quot;#ff8000&quot;&gt;choice2&lt;/font&gt;;&lt;/font&gt;&lt;/div&gt;&lt;div&gt;&lt;font size=&quot;3&quot;&gt;&amp;nbsp; }&lt;/font&gt;&lt;/div&gt;" style="text;strokeColor=none;align=left;fillColor=none;html=1;verticalAlign=middle;whiteSpace=wrap;rounded=0;" vertex="1" parent="1">
          <mxGeometry x="910" y="980" width="500" height="120" as="geometry" />
        </mxCell>
        <mxCell id="Wq8Kh5scFoRL-JU25aqo-29" value="&lt;div&gt;&lt;br&gt;&lt;/div&gt;&lt;div&gt;&lt;font color=&quot;#009900&quot; size=&quot;3&quot;&gt;Create a method called getChoice1() that returns the text for the first choice1 from _storyData.&lt;/font&gt;&lt;/div&gt;&lt;div&gt;&lt;font size=&quot;3&quot;&gt;&amp;nbsp; &lt;b&gt;&lt;font color=&quot;#0000ff&quot;&gt;String getChoice1()&lt;/font&gt; &lt;/b&gt;{&lt;/font&gt;&lt;/div&gt;&lt;div&gt;&lt;font size=&quot;3&quot;&gt;&amp;nbsp; &amp;nbsp; return _storyData[&lt;font color=&quot;#cc0000&quot;&gt;_storyNumber&lt;/font&gt;].&lt;font color=&quot;#ff8000&quot;&gt;choice1&lt;/font&gt;;&lt;/font&gt;&lt;/div&gt;&lt;div&gt;&lt;font size=&quot;3&quot;&gt;&amp;nbsp; }&lt;/font&gt;&lt;/div&gt;" style="text;strokeColor=none;align=left;fillColor=none;html=1;verticalAlign=middle;whiteSpace=wrap;rounded=0;" vertex="1" parent="1">
          <mxGeometry x="900" y="640" width="500" height="100" as="geometry" />
        </mxCell>
        <mxCell id="Wq8Kh5scFoRL-JU25aqo-46" value="&lt;div&gt;&lt;font style=&quot;font-size: 18px;&quot;&gt;&amp;nbsp; &lt;font color=&quot;#0000ff&quot;&gt;&lt;b&gt;String getStory()&lt;/b&gt;&lt;/font&gt; {&lt;/font&gt;&lt;/div&gt;&lt;div&gt;&lt;font size=&quot;3&quot;&gt;&amp;nbsp; &amp;nbsp; return _storyData[&lt;font color=&quot;#cc0000&quot;&gt;_storyNumber&lt;/font&gt;].&lt;font color=&quot;#ff8000&quot;&gt;storyTitle&lt;/font&gt;;&lt;/font&gt;&lt;/div&gt;&lt;div&gt;&lt;font size=&quot;3&quot;&gt;&amp;nbsp; }&lt;/font&gt;&lt;/div&gt;&lt;div&gt;&lt;br&gt;&lt;/div&gt;" style="text;strokeColor=#d6b656;align=left;fillColor=#fff2cc;html=1;verticalAlign=middle;whiteSpace=wrap;rounded=0;" vertex="1" parent="1">
          <mxGeometry x="920" y="230" width="280" height="160" as="geometry" />
        </mxCell>
        <mxCell id="Wq8Kh5scFoRL-JU25aqo-50" value="&lt;b&gt;&lt;font style=&quot;font-size: 24px;&quot; color=&quot;#cc0000&quot;&gt;int _storyNumber =0;&lt;/font&gt;&lt;/b&gt;" style="text;strokeColor=#2D7600;align=center;fillColor=#60a917;html=1;verticalAlign=middle;whiteSpace=wrap;rounded=0;fontColor=#ffffff;" vertex="1" parent="1">
          <mxGeometry x="-580" y="110" width="320" height="30" as="geometry" />
        </mxCell>
        <mxCell id="Wq8Kh5scFoRL-JU25aqo-51" value="&lt;font style=&quot;font-size: 24px;&quot;&gt;Toutes les methodes ce qu&#39;elles ont en commun ce sont les _storyNumber qui s&#39;update quand:&lt;br&gt;user clique sur choice1 (choiceNumber sera 1)&lt;br&gt;user clique sur choice2 (choiceNumber sera 2)&lt;/font&gt;" style="text;strokeColor=none;align=center;fillColor=none;html=1;verticalAlign=middle;whiteSpace=wrap;rounded=0;" vertex="1" parent="1">
          <mxGeometry x="-740" y="160" width="690" height="200" as="geometry" />
        </mxCell>
        <mxCell id="Wq8Kh5scFoRL-JU25aqo-19" value="" style="endArrow=classic;html=1;rounded=0;entryX=0.156;entryY=0.367;entryDx=0;entryDy=0;entryPerimeter=0;strokeColor=#CC0000;exitX=0.639;exitY=0.227;exitDx=0;exitDy=0;exitPerimeter=0;" edge="1" parent="1" source="Wq8Kh5scFoRL-JU25aqo-16" target="Wq8Kh5scFoRL-JU25aqo-11">
          <mxGeometry relative="1" as="geometry">
            <mxPoint x="-290" y="520" as="sourcePoint" />
            <mxPoint x="-190" y="520" as="targetPoint" />
          </mxGeometry>
        </mxCell>
        <mxCell id="Wq8Kh5scFoRL-JU25aqo-20" value="Label" style="edgeLabel;resizable=0;html=1;align=center;verticalAlign=middle;" connectable="0" vertex="1" parent="Wq8Kh5scFoRL-JU25aqo-19">
          <mxGeometry relative="1" as="geometry" />
        </mxCell>
        <mxCell id="Wq8Kh5scFoRL-JU25aqo-21" value="my_story.nextStory(1 OR 2)" style="edgeLabel;html=1;align=center;verticalAlign=middle;resizable=0;points=[];" vertex="1" connectable="0" parent="Wq8Kh5scFoRL-JU25aqo-19">
          <mxGeometry x="-0.0187" y="-2" relative="1" as="geometry">
            <mxPoint as="offset" />
          </mxGeometry>
        </mxCell>
        <mxCell id="Wq8Kh5scFoRL-JU25aqo-56" value="" style="endArrow=classic;html=1;rounded=0;strokeColor=#CC0000;exitX=0.639;exitY=0.227;exitDx=0;exitDy=0;exitPerimeter=0;" edge="1" parent="1">
          <mxGeometry relative="1" as="geometry">
            <mxPoint x="-177" y="600" as="sourcePoint" />
            <mxPoint x="280" y="890" as="targetPoint" />
          </mxGeometry>
        </mxCell>
        <mxCell id="Wq8Kh5scFoRL-JU25aqo-57" value="Label" style="edgeLabel;resizable=0;html=1;align=center;verticalAlign=middle;" connectable="0" vertex="1" parent="Wq8Kh5scFoRL-JU25aqo-56">
          <mxGeometry relative="1" as="geometry" />
        </mxCell>
        <mxCell id="Wq8Kh5scFoRL-JU25aqo-58" value="my_story.nextStory(1 OR 2)" style="edgeLabel;html=1;align=center;verticalAlign=middle;resizable=0;points=[];" vertex="1" connectable="0" parent="Wq8Kh5scFoRL-JU25aqo-56">
          <mxGeometry x="-0.0187" y="-2" relative="1" as="geometry">
            <mxPoint as="offset" />
          </mxGeometry>
        </mxCell>
      </root>
    </mxGraphModel>
  </diagram>
</mxfile>
